<svg xmlns:mydata="http://www.w3.org/2000/svg" mydata:contrastcolor="ffffff" mydata:template="Contrast" mydata:presentation="2.5" mydata:layouttype="undefined" mydata:specialfontid="undefined" mydata:id1="27" mydata:id2="1028" mydata:companyname="techsec store" xmlns="http://www.w3.org/2000/svg" style="height:827px" viewBox="0 0 550 470"><g data-paper-data="{&quot;isGlobalGroup&quot;:true,&quot;bounds&quot;:{&quot;x&quot;:146,&quot;y&quot;:105.99999999999999,&quot;width&quot;:258,&quot;height&quot;:258}}" fill="#ef426f" fill-rule="evenodd" stroke-miterlimit="10" font-family="none" font-weight="none" font-size="none" text-anchor="none" style="mix-blend-mode:normal"><g data-paper-data="{&quot;isContainerElementsWrapper&quot;:true}"><path d="M275 106c-71.245 0-129 57.755-129 129s57.755 129 129 129 129-57.755 129-129-57.755-129-129-129zm-14.605 79.98c0-6.991-29.585-8.863-29.585-12.484 0-2.122 10.236-3.12 10.236-7.74v-8.987h67.907v9.362c0 3.995-6.241 5.243-6.241 8.364 0 2.497 4.244 5.118 8.987 5.742 2.996.375 7.49 1.747 7.49 4.494 0 1.747-1.747 2.246-3.495 2.246-5.867 0-8.863-5.367-22.844-5.367-4.244 0-9.86.5-9.86 1.997 0 .874 2.246 1.872 8.737 1.872 1.872 0 2.746.5 2.746 1 0 .374-.374.748-1.123 1.123-1.498.749-3.746 2.496-3.746 3.994 0 2.87 9.737 1.872 9.737 4.868 0 2.996-9.737 1.748-9.737 5.368 0 3.12 7.241 3.37 8.864 3.37 5.243 0 7.49-2.372 10.236-2.372 1.747 0 3.37.999 3.37 2.996 0 1.997-1.998 3.246-3.745 3.246-1.748 0-6.116-1.623-9.112-1.623-10.736 0-14.355 3.495-14.355 6.366 0 5.243 12.233 5.492 12.233 9.987 0 4.493-3.745 7.24-3.745 15.353h-36.325v-5.117c0-3.246 1.748-6.117 1.748-9.113 0-3.745-2.747-7.49-7.366-7.49-2.496 0-7.24 1.124-9.112 1.124-2.372 0-4.12-1.748-4.12-3.746 0-1.747 1.373-3.245 3.246-3.245 2.996 0 4.12 3.62 9.986 3.62 5.743 0 10.486-3.495 10.486-7.615 0-6.116-10.86-10.86-10.86-13.855 0-2.871 9.362-3.62 9.362-7.739zm-13.356-13.233c-3.745 0-7.24.375-7.24.749 0 .624 8.363 3.12 12.233 3.12 2.122 0 2.62-.748 2.62-1.497 0-1.997-3.869-2.372-7.613-2.372zm54.549 16.977c.375.374 1.248 1.123 2.247 1.123.999 0 1.998-.625 1.998-1.872 0-2.247-3.745-3.37-5.742-3.37-1 0-1.873.25-1.998.873-.078.545.476.945 1.42 1.624l.004.003a24.84 24.84 0 0 1 2.071 1.619zm-53.051 5.242c-1.249 0-2.747-1.748-2.747-3.12 0-.75.624-1.748 1.997-1.748 1.249 0 2.122.874 2.122 2.621 0 .874-.25 2.247-1.372 2.247zm-9.363 3.37c1.498 0 2.497-.25 3.745-.25 3.245 0 3.495 1.873 3.495 3.995s.25 2.496 1.748 2.496l3.745-.25c2.621 0 3.495 1.374 3.745 2.997.25 1.997 1.123 2.247 1.997 2.247 1.124 0 2.122-.5 2.122-1.623 0-.624-.375-1.498-1.249-2.621-5.117-6.616-11.483-11.485-19.722-11.485-3.495 0-5.617.874-5.617 1.998 0 1.123 2.371 2.496 5.991 2.496zm13.98 10.486c0 1.373-1.747 2.996-3.62 3.12-1.372 0-2.37-.873-2.37-2.247 0-1.622 1.497-2.62 3.12-2.62.998 0 2.87.374 2.87 1.747zm33.705 5.243c0 1.373 3.62 2.871 4.993 2.871.998 0 1.498-.874 1.498-2.871 0-2.872-.999-3.745-2.247-3.745-2.122 0-4.244 2.496-4.244 3.745zm-30.21 10.86c0 .874-.124 2.496-1.496 2.496-1.498 0-3.246-1.747-3.246-3.37 0-1.373 1.123-2.247 2.621-2.247 1.748 0 2.122 1.623 2.122 3.12zm34.953-.75c0-1.248-5.617-1.372-6.616-1.372-2.122 0-9.362 0-9.362 4.743 0 .874.25 1.997 1.623 1.997 1.123 0 2.996-.998 5.367-1.997 5.368-2.247 8.988-2.247 8.988-3.37zm-53.21 44.325c0-2.06.302-3.903.908-5.528.606-1.625 1.452-2.997 2.539-4.119a10.963 10.963 0 0 1 3.88-2.573c1.501-.594 3.146-.891 4.935-.891 1.415 0 2.646.087 3.693.263 1.048.176 1.917.416 2.608.722.69.305 1.206.668 1.545 1.086.34.42.51.872.51 1.36a1.73 1.73 0 0 1-.74 1.46c-.22.158-.466.275-.738.348-.271.074-.544.11-.815.11-.159 0-.317-.002-.476-.008a1.754 1.754 0 0 1-.458-.076c-.43-.114-.84-.224-1.232-.332-.39-.107-.775-.2-1.155-.28-.379-.08-.758-.144-1.137-.195a8.827 8.827 0 0 0-1.18-.077 7.47 7.47 0 0 0-2.404.382c-.753.255-1.407.705-1.962 1.351-.555.645-.993 1.52-1.316 2.624-.322 1.104-.484 2.51-.484 4.22 0 1.313.13 2.494.39 3.541.261 1.048.649 1.936 1.164 2.667a5.21 5.21 0 0 0 1.936 1.681c.776.39 1.679.586 2.71.586.418 0 .854-.045 1.307-.136.453-.09.917-.207 1.393-.348.475-.141.96-.303 1.452-.484l1.47-.543a1.87 1.87 0 0 1 .542-.068c.284 0 .541.054.773.161a1.882 1.882 0 0 1 .994 1.07c.09.243.135.5.135.773 0 .441-.144.846-.432 1.214a4.35 4.35 0 0 1-1.147.994 8.678 8.678 0 0 1-1.639.772 16.29 16.29 0 0 1-1.91.552c-.657.147-1.311.258-1.962.331-.651.074-1.254.111-1.809.111-1.676 0-3.238-.28-4.688-.84a10.571 10.571 0 0 1-3.77-2.463c-1.064-1.082-1.902-2.412-2.513-3.992-.611-1.579-.917-3.388-.917-5.426zm57.693-6.097a1.9 1.9 0 0 0 .544 1.375c.362.374.835.697 1.418.969.583.271 1.243.51 1.979.713a228.6 228.6 0 0 1 2.224.628c1.2.362 2.29.747 3.27 1.155.979.408 1.817.895 2.513 1.46a5.937 5.937 0 0 1 1.614 2.013c.38.776.569 1.707.569 2.795 0 1.188-.235 2.258-.705 3.21a6.79 6.79 0 0 1-2.03 2.428c-.883.668-1.95 1.18-3.2 1.537-1.252.356-2.66.535-4.222.535-.803 0-1.613-.048-2.428-.145a20.485 20.485 0 0 1-2.361-.416 16.254 16.254 0 0 1-2.14-.662 9.35 9.35 0 0 1-1.75-.883c-.497-.329-.888-.688-1.17-1.079a2.09 2.09 0 0 1-.426-1.248c0-.283.06-.56.178-.832a3.05 3.05 0 0 1 .459-.74c.187-.22.396-.398.628-.534.233-.136.462-.204.688-.204.204 0 .402.034.595.102.192.068.387.15.586.247.198.096.401.2.611.314.21.113.433.215.671.306.781.35 1.659.667 2.632.95.974.283 1.993.425 3.058.425a8.04 8.04 0 0 0 1.638-.161 4.685 4.685 0 0 0 1.359-.493c.39-.22.7-.506.926-.857.226-.352.34-.776.34-1.274 0-.374-.069-.708-.204-1.002a2.445 2.445 0 0 0-.561-.773 3.721 3.721 0 0 0-.832-.577 7.95 7.95 0 0 0-1.002-.434l-.764-.271a7.225 7.225 0 0 1-.425-.145 5.864 5.864 0 0 0-.442-.144l-.882-.255a9.564 9.564 0 0 1-.493-.127 5.676 5.676 0 0 1-.366-.12 12.218 12.218 0 0 1-.313-.118 7.715 7.715 0 0 0-.357-.127l-1.597-.56c-1.03-.374-1.913-.765-2.65-1.173-.735-.407-1.335-.866-1.8-1.376a4.894 4.894 0 0 1-1.027-1.74c-.22-.651-.331-1.407-.331-2.268 0-1.132.235-2.156.705-3.073a6.654 6.654 0 0 1 2.02-2.344c.878-.646 1.943-1.144 3.194-1.495 1.251-.35 2.658-.526 4.22-.526.566 0 1.183.036 1.851.11a18.94 18.94 0 0 1 2.005.331c.667.148 1.31.337 1.927.569a8.373 8.373 0 0 1 1.64.815c.475.312.857.666 1.146 1.062a2.2 2.2 0 0 1 .432 1.325 1.876 1.876 0 0 1-.594 1.392 1.99 1.99 0 0 1-.637.4 2.038 2.038 0 0 1-.756.144 2 2 0 0 1-.934-.221 22.257 22.257 0 0 0-1.486-.696 11.243 11.243 0 0 0-1.367-.476 9.455 9.455 0 0 0-1.401-.272 13.69 13.69 0 0 0-1.588-.085c-.543 0-1.078.049-1.605.145a5.16 5.16 0 0 0-1.41.458c-.413.21-.747.479-1.002.807-.254.329-.382.73-.382 1.206zm38.52 6.097c0-2.06.302-3.903.908-5.528.606-1.625 1.452-2.997 2.539-4.119a10.963 10.963 0 0 1 3.88-2.573c1.501-.594 3.145-.891 4.935-.891 1.415 0 2.646.087 3.693.263 1.048.176 1.917.416 2.607.722.691.305 1.206.668 1.546 1.086.34.42.51.872.51 1.36a1.73 1.73 0 0 1-.74 1.46c-.22.158-.466.275-.738.348-.272.074-.544.11-.815.11-.159 0-.318-.002-.476-.008a1.754 1.754 0 0 1-.458-.076c-.43-.114-.841-.224-1.232-.332-.39-.107-.775-.2-1.155-.28-.379-.08-.758-.144-1.137-.195a8.837 8.837 0 0 0-1.181-.077c-.85 0-1.65.128-2.403.382-.753.255-1.407.705-1.962 1.351-.555.645-.993 1.52-1.316 2.624-.323 1.104-.484 2.51-.484 4.22 0 1.313.13 2.494.39 3.541.261 1.048.649 1.936 1.164 2.667a5.21 5.21 0 0 0 1.936 1.681c.776.39 1.679.586 2.71.586.418 0 .854-.045 1.307-.136.452-.09.917-.207 1.392-.348a24 24 0 0 0 1.453-.484c.492-.181.982-.362 1.468-.543.148-.046.329-.068.544-.068.283 0 .54.054.773.161a1.882 1.882 0 0 1 .994 1.07c.09.244.135.501.135.773 0 .441-.144.846-.433 1.214a4.343 4.343 0 0 1-1.147.994 8.624 8.624 0 0 1-1.638.772 16.25 16.25 0 0 1-1.911.552c-.657.147-1.31.258-1.961.331-.652.074-1.254.111-1.809.111-1.676 0-3.238-.28-4.688-.84a10.571 10.571 0 0 1-3.77-2.463c-1.064-1.082-1.902-2.412-2.513-3.992-.612-1.579-.918-3.388-.918-5.426zm-138.503-8.229c.294.119.606.179.934.179h4.654v16.864a3.408 3.408 0 0 0 .917 2.353c.283.3.614.535.993.704.38.17.79.255 1.232.255.441 0 .852-.085 1.23-.255.38-.17.714-.404 1.003-.704.289-.3.515-.65.68-1.053.164-.402.246-.835.246-1.3V260.45h4.551a2.521 2.521 0 0 0 1.707-.662c.221-.204.396-.442.527-.714a2.033 2.033 0 0 0 0-1.74 2.3 2.3 0 0 0-.527-.723 2.521 2.521 0 0 0-1.707-.662h-15.506a2.517 2.517 0 0 0-1.707.662 2.31 2.31 0 0 0-.526.723 2.033 2.033 0 0 0 0 1.74c.13.272.306.51.526.713.221.204.479.365.773.484zm83.56-2.31c-.17.403-.255.835-.255 1.3v6.2h-8.747v-6.2a3.41 3.41 0 0 0-.246-1.3 3.3 3.3 0 0 0-.679-1.052 3.19 3.19 0 0 0-1.002-.705c-.38-.17-.79-.255-1.231-.255-.442 0-.852.085-1.231.255-.38.17-.711.405-.994.705a3.396 3.396 0 0 0-.917 2.352v18.053a3.396 3.396 0 0 0 .917 2.353c.283.3.614.535.994.704.379.17.789.255 1.23.255a2.98 2.98 0 0 0 1.232-.255 3.19 3.19 0 0 0 1.002-.704c.289-.3.515-.65.68-1.053.163-.402.245-.835.245-1.3V270.3h8.747l.017 7.014a3.396 3.396 0 0 0 .918 2.353c.282.3.614.535.993.704.38.17.79.255 1.231.255a2.98 2.98 0 0 0 1.232-.255 3.175 3.175 0 0 0 1.002-.704c.289-.3.515-.65.679-1.053.164-.402.246-.835.246-1.3v-18.053a3.41 3.41 0 0 0-.246-1.3 3.3 3.3 0 0 0-.68-1.052 3.19 3.19 0 0 0-1.001-.705 2.98 2.98 0 0 0-1.232-.255c-.442 0-.852.085-1.23.255-.38.17-.712.405-.994.705-.284.3-.51.65-.68 1.052zm-60.114 22.309c.39.237.875.356 1.452.356h12.211c.306 0 .592-.056.858-.17.266-.113.501-.268.705-.466a2.159 2.159 0 0 0 .645-1.554c0-.306-.056-.592-.17-.858a2.216 2.216 0 0 0-1.18-1.18 2.17 2.17 0 0 0-.858-.17h-9.17v-5.945h7.981c.329 0 .637-.056.926-.17a2.4 2.4 0 0 0 .756-.467 2.21 2.21 0 0 0 .51-.696c.124-.266.187-.552.187-.857a1.99 1.99 0 0 0-.188-.858 2.307 2.307 0 0 0-1.265-1.18 2.514 2.514 0 0 0-.926-.17h-7.982v-5.503h8.747c.328 0 .637-.057.925-.17.289-.113.541-.269.756-.467.215-.198.385-.43.51-.696.124-.267.186-.553.186-.858 0-.306-.062-.595-.186-.866a2.183 2.183 0 0 0-.51-.705 2.514 2.514 0 0 0-.756-.476 2.408 2.408 0 0 0-.925-.178h-10.904c-.883 0-1.585.113-2.106.34-.52.226-.917.538-1.188.934-.272.396-.448.869-.527 1.418-.08.549-.12 1.146-.12 1.792v16.185c0 .476.052.951.154 1.427.102.476.272.903.51 1.282.238.38.551.688.942.926zm96.213 0c.39.237.874.356 1.452.356h12.211c.306 0 .592-.056.858-.17.266-.112.5-.268.705-.466a2.159 2.159 0 0 0 .645-1.554c0-.306-.056-.592-.17-.858a2.216 2.216 0 0 0-1.18-1.18 2.164 2.164 0 0 0-.858-.17h-9.17v-5.945h7.981c.329 0 .637-.057.926-.17a2.39 2.39 0 0 0 .755-.467c.216-.197.385-.43.51-.696a1.99 1.99 0 0 0 .187-.857c0-.306-.062-.593-.187-.858a2.319 2.319 0 0 0-1.265-1.18 2.521 2.521 0 0 0-.926-.17h-7.982v-5.503H329c.328 0 .636-.057.925-.17.289-.113.541-.269.756-.467.215-.198.385-.43.51-.696.124-.267.186-.553.186-.858 0-.306-.062-.595-.186-.866a2.183 2.183 0 0 0-.51-.705 2.514 2.514 0 0 0-.756-.476 2.408 2.408 0 0 0-.925-.178h-10.904c-.883 0-1.585.113-2.106.34-.52.226-.917.538-1.189.934s-.447.869-.527 1.418c-.079.55-.118 1.147-.118 1.792v16.185c0 .476.05.951.153 1.427.102.476.271.903.509 1.282.238.38.552.688.943.926zm-90.464 15.518a1.9 1.9 0 0 1-.544-1.375c0-.476.128-.878.383-1.206a2.906 2.906 0 0 1 1.002-.807c.413-.21.883-.362 1.41-.459a8.904 8.904 0 0 1 1.604-.144c.578 0 1.107.028 1.588.085.481.057.949.147 1.401.272.454.124.909.283 1.368.475.458.193.953.425 1.486.696.283.148.594.221.934.221.26 0 .513-.047.755-.144a1.902 1.902 0 0 0 1.231-1.792c0-.487-.143-.928-.432-1.325a4.332 4.332 0 0 0-1.146-1.06 8.336 8.336 0 0 0-1.64-.816 14.022 14.022 0 0 0-1.927-.57 19.104 19.104 0 0 0-2.004-.33 16.971 16.971 0 0 0-1.851-.11c-1.563 0-2.97.175-4.22.526-1.252.35-2.316.85-3.194 1.494a6.66 6.66 0 0 0-2.021 2.344c-.47.917-.705 1.942-.705 3.074 0 .86.111 1.616.331 2.268.221.65.564 1.23 1.028 1.74.464.51 1.064.968 1.8 1.376.737.407 1.62.798 2.65 1.172l1.596.56c.136.046.255.088.357.128.102.04.207.08.314.118.108.04.23.08.365.12.136.039.3.081.493.127l.883.254c.158.046.306.094.442.145.135.051.277.099.424.144l.764.272c.352.124.685.27 1.003.433.316.165.594.357.831.578.239.22.425.478.561.773.136.294.204.628.204 1.001 0 .499-.114.924-.34 1.274a2.604 2.604 0 0 1-.925.858 4.74 4.74 0 0 1-1.359.493 8.018 8.018 0 0 1-1.64.161c-1.063 0-2.083-.141-3.056-.425-.974-.283-1.851-.6-2.633-.95a5.653 5.653 0 0 1-.67-.307c-.21-.113-.414-.218-.612-.314a5.556 5.556 0 0 0-.586-.246 1.777 1.777 0 0 0-.594-.102c-.227 0-.456.068-.688.204a2.418 2.418 0 0 0-.628.535c-.187.22-.34.467-.459.739a2.057 2.057 0 0 0-.178.832c0 .441.141.858.424 1.248.283.39.674.75 1.172 1.078a9.372 9.372 0 0 0 1.75.884c.667.26 1.38.481 2.14.662.758.181 1.545.32 2.36.416.815.097 1.625.144 2.429.144 1.562 0 2.97-.177 4.22-.535 1.251-.356 2.319-.868 3.201-1.537a6.784 6.784 0 0 0 2.03-2.428c.47-.951.705-2.021.705-3.21 0-1.087-.19-2.018-.569-2.794a5.933 5.933 0 0 0-1.613-2.013c-.697-.566-1.535-1.052-2.514-1.46-.98-.407-2.07-.792-3.27-1.155a228.75 228.75 0 0 0-2.224-.628 12.676 12.676 0 0 1-1.979-.714c-.583-.271-1.056-.594-1.418-.968zm36.218-.645c-.504 1.585-.756 3.312-.756 5.18 0 1.959.264 3.73.79 5.316.526 1.585 1.305 2.94 2.335 4.068 1.03 1.126 2.302 1.995 3.813 2.606 1.511.612 3.247.917 5.206.917 2.003 0 3.764-.316 5.281-.95 1.518-.635 2.785-1.52 3.805-2.658 1.019-1.139 1.783-2.5 2.292-4.085.51-1.585.765-3.323.765-5.214 0-1.925-.26-3.68-.781-5.265-.521-1.585-1.291-2.947-2.31-4.085-1.02-1.138-2.287-2.018-3.804-2.64-1.518-.623-3.267-.935-5.248-.935-2.039 0-3.816.323-5.333.969-1.518.645-2.78 1.54-3.788 2.683-1.007 1.144-1.763 2.508-2.267 4.093zm-19.064-2.684a2.51 2.51 0 0 1-1.707-.662 2.33 2.33 0 0 1-.527-.713 2.036 2.036 0 0 1 0-1.74 2.3 2.3 0 0 1 .527-.723 2.521 2.521 0 0 1 1.707-.663h15.506a2.517 2.517 0 0 1 1.707.662c.22.205.396.446.526.723a2.036 2.036 0 0 1 0 1.74 2.34 2.34 0 0 1-.526.714 2.506 2.506 0 0 1-1.707.662h-4.552v16.865c0 .464-.082.898-.246 1.3a3.28 3.28 0 0 1-.68 1.053 3.19 3.19 0 0 1-1.001.705c-.38.17-.79.254-1.232.254a2.98 2.98 0 0 1-1.23-.254 3.08 3.08 0 0 1-.994-.705 3.405 3.405 0 0 1-.917-2.352v-16.866zm53.074 16.865c0 .464-.082.898-.246 1.3a3.31 3.31 0 0 1-.68 1.053c-.289.3-.623.535-1.002.705-.38.17-.79.254-1.231.254-.442 0-.852-.085-1.232-.254a3.095 3.095 0 0 1-.993-.705 3.392 3.392 0 0 1-.917-2.353v-18.24c0-.521.104-.977.314-1.367.21-.391.49-.716.84-.977a3.72 3.72 0 0 1 1.232-.586c.47-.13.965-.196 1.486-.196h6.81c1.257 0 2.463.083 3.618.247 1.155.164 2.171.473 3.049.926a5.464 5.464 0 0 1 2.106 1.885c.526.804.79 1.851.79 3.142 0 .702-.097 1.367-.29 1.995a4.717 4.717 0 0 1-.933 1.699c-.43.504-.994.934-1.69 1.29-.697.357-1.548.62-2.557.79V300c.725.09 1.345.224 1.86.4a4.29 4.29 0 0 1 1.316.696c.363.288.657.637.884 1.044.226.408.413.889.56 1.444.147.555.266 1.186.357 1.893.09.708.175 1.51.255 2.404.022.249.039.49.05.721.012.233.018.462.018.689 0 .486-.046.933-.137 1.34-.09.408-.248.76-.475 1.054a2.215 2.215 0 0 1-.934.688c-.397.164-.906.246-1.529.246-.565 0-1.039-.13-1.418-.39a3.05 3.05 0 0 1-.942-1.07 5.834 5.834 0 0 1-.57-1.572 19.449 19.449 0 0 1-.313-1.91 40.966 40.966 0 0 0-.348-2.471c-.12-.662-.309-1.197-.57-1.606a2.11 2.11 0 0 0-1.112-.866c-.481-.169-1.14-.254-1.979-.254h-3.447zm20.15 2.955c.391.238.875.357 1.453.357h12.211c.306 0 .592-.057.858-.17.266-.113.501-.269.705-.467a2.154 2.154 0 0 0 .645-1.554 2.165 2.165 0 0 0-.645-1.562 2.164 2.164 0 0 0-1.563-.646h-9.17v-5.944h7.981c.329 0 .637-.057.926-.17.289-.113.54-.269.756-.467.215-.198.385-.43.51-.697.124-.265.186-.551.186-.857 0-.305-.062-.591-.187-.858a2.307 2.307 0 0 0-1.265-1.18 2.508 2.508 0 0 0-.926-.17h-7.982v-5.503h8.747c.328 0 .636-.056.925-.17a2.38 2.38 0 0 0 .756-.467 2.21 2.21 0 0 0 .51-.696c.124-.266.186-.552.186-.857 0-.306-.062-.595-.186-.867a2.193 2.193 0 0 0-.51-.705 2.525 2.525 0 0 0-.756-.475 2.408 2.408 0 0 0-.925-.178H318.01c-.883 0-1.585.113-2.106.34-.52.226-.917.537-1.189.933-.272.397-.447.87-.526 1.419a12.51 12.51 0 0 0-.12 1.791v16.186c0 .476.052.95.154 1.427.102.475.271.902.51 1.282.237.38.551.688.942.925zm-17.535-13.74c.612 0 1.223-.036 1.835-.11a5.361 5.361 0 0 0 1.655-.458 2.953 2.953 0 0 0 1.198-1.02c.305-.446.458-1.044.458-1.791 0-.86-.147-1.506-.442-1.936a2.724 2.724 0 0 0-1.171-.969c-.487-.215-1.05-.347-1.69-.399a25.078 25.078 0 0 0-1.996-.076h-2.564v6.76zm-29.433 8.144c-.894-1.432-1.341-3.552-1.341-6.36 0-1.359.11-2.567.33-3.626.222-1.059.558-1.95 1.011-2.675.453-.725 1.028-1.277 1.724-1.656.697-.38 1.52-.57 2.472-.57.962 0 1.791.19 2.488.57.696.38 1.27.931 1.724 1.656.452.724.79 1.616 1.01 2.675.22 1.059.33 2.267.33 3.626 0 2.82-.458 4.942-1.374 6.37-.918 1.425-2.31 2.139-4.178 2.139-1.903 0-3.301-.716-4.196-2.149z" data-paper-data="{&quot;isBaseLogoContainer&quot;:true}"/></g></g><path data-element-id="element-id-16629" fill="transparent" class="invisible-element-box grouping-element" data-element-name="isContainerElementsWrapper" d="M146 106h258v258H146z"/><path data-element-id="element-id-7749" fill="transparent" class="invisible-element-box individual-element" d="M146 106h258v258H146z"/></svg>