<svg xmlns:mydata="http://www.w3.org/2000/svg" mydata:contrastcolor="25142d" mydata:template="Contrast" mydata:presentation="2.5" mydata:layouttype="undefined" mydata:specialfontid="undefined" mydata:id1="0" mydata:id2="574" mydata:companyname="TechSec store" xmlns="http://www.w3.org/2000/svg" viewBox="0 35 550 400"><defs><linearGradient x1="150.317" y1="235" x2="399.683" y2="235" gradientUnits="userSpaceOnUse" id="a"><stop offset="0" stop-color="#7b4397"/><stop offset="1" stop-color="#dc2430"/></linearGradient></defs><g data-paper-data="{&quot;isGlobalGroup&quot;:true,&quot;bounds&quot;:{&quot;x&quot;:150.31668054989112,&quot;y&quot;:106.00000000000003,&quot;width&quot;:249.3666389002178,&quot;height&quot;:258}}" fill="url(#a)" fill-rule="none" stroke-miterlimit="10" font-family="none" font-weight="none" font-size="none" text-anchor="none" style="mix-blend-mode:normal"><g data-paper-data="{&quot;fillRule&quot;:&quot;evenodd&quot;,&quot;fillRuleOriginal&quot;:&quot;evenodd&quot;,&quot;isIcon&quot;:true,&quot;iconStyle&quot;:&quot;standalone&quot;,&quot;selectedEffects&quot;:{&quot;container&quot;:&quot;&quot;,&quot;transformation&quot;:&quot;&quot;,&quot;pattern&quot;:&quot;&quot;},&quot;bounds&quot;:{&quot;x&quot;:183.30241551768722,&quot;y&quot;:144.07807842717233,&quot;width&quot;:183.0716572951501,&quot;height&quot;:181.51110640425674},&quot;iconType&quot;:&quot;initial&quot;,&quot;initialText&quot;:&quot;TS&quot;,&quot;rawInitialId&quot;:315,&quot;disableIconEffects&quot;:&quot;true&quot;,&quot;monogramSpecial&quot;:&quot;half-moon&quot;,&quot;suitableAsStandaloneIcon&quot;:true}" fill-rule="evenodd"><path d="M183.302 234.833c0-50.122 40.633-90.755 90.756-90.755 21.138 0 40.588 7.226 56.014 19.343-11.748-6.54-25.278-10.268-39.678-10.268-45.11 0-81.68 36.57-81.68 81.68 0 45.111 36.57 81.68 81.68 81.68 14.4 0 27.93-3.726 39.678-10.268-15.426 12.118-34.876 19.344-56.014 19.344-50.123 0-90.756-40.633-90.756-90.756zm183.072 0c0 40.099-32.506 72.605-72.604 72.605-16.91 0-32.47-5.781-44.811-15.475 9.398 5.233 20.222 8.214 31.742 8.214 36.089 0 65.344-29.255 65.344-65.344 0-36.088-29.255-65.344-65.344-65.344-11.52 0-22.344 2.982-31.742 8.215 12.34-9.694 27.9-15.475 44.81-15.475 40.099 0 72.605 32.506 72.605 72.604zm-61.139-2.74c1.916.64 3.704 1.47 5.236 2.491 3.64 2.299 5.62 5.683 5.62 9.77 0 4.79-1.852 8.494-5.492 11.048-2.554 1.852-5.939 2.937-10.026 3.384h-.255c-.511 0-1.086-.191-1.469-.574a2.15 2.15 0 0 1-.766-1.66v-4.598c0-1.15.894-2.108 1.98-2.236 6.64-.766 6.64-3.831 6.64-5.172 0-.958-.319-1.597-1.149-2.171-1.277-.894-2.873-1.597-4.79-2.171-.318-.064-.574-.192-.83-.256l-.19-.064a112.72 112.72 0 0 0-5.876-1.468c-.766-.128-1.596-.384-2.554-.639a43.26 43.26 0 0 1-4.853-1.596c-2.427-1.022-4.534-2.363-6.195-4.024-1.852-1.851-2.81-4.342-2.81-7.407 0-4.215 1.66-7.663 4.854-10.281 2.299-1.916 5.428-3.066 9.323-3.576a2.336 2.336 0 0 1 1.788.574 2.32 2.32 0 0 1 .703 1.66v4.598c0 1.086-.767 2.044-1.852 2.235a8.78 8.78 0 0 0-1.597.32c-1.213.447-2.107.894-2.682 1.405-.51.447-.83.894-1.022 1.34a7.196 7.196 0 0 0-.319 2.044c0 .192 0 .511.575 1.086.638.638 1.533 1.15 2.618 1.596.766.32 1.724.639 2.682.958.575.128 1.15.32 1.724.447 1.788.447 3.576.894 5.428 1.341.256.064.511.128.83.192l.384.127c1.66.447 3.065.83 4.342 1.278zm-69.414-21.2h6.577a2.29 2.29 0 0 1 2.3 2.298v4.662a2.29 2.29 0 0 1-2.3 2.3h-6.577c-1.213 0-2.235-1.023-2.235-2.3v-4.662c0-1.277 1.022-2.298 2.235-2.298zm15.134 0h19.988c1.213 0 2.235 1.021 2.235 2.298v4.662c0 1.277-1.022 2.3-2.235 2.3h-12.836v36.27c0 1.214-1.021 2.236-2.235 2.236h-4.917c-1.277 0-2.299-1.022-2.299-2.235V213.19a2.29 2.29 0 0 1 2.3-2.298zm49.107 9.26h-.255c-1.022-.256-1.724-1.15-1.724-2.236v-4.662c0-.638.32-1.277.83-1.724.447-.383 1.15-.575 1.788-.447 3.704.575 6.769 1.852 9.132 3.832 3.193 2.618 4.917 6.002 5.108 10.09.064.638-.191 1.213-.574 1.66a2.319 2.319 0 0 1-1.66.702h-4.982c-1.085 0-2.043-.83-2.17-1.98-.256-1.596-.959-3.959-5.237-5.172-.128 0-.192 0-.256-.064zm-11.239 28.033c1.022.575 2.172.958 3.513 1.277 1.085.192 1.788 1.15 1.788 2.171v4.726a2.28 2.28 0 0 1-.767 1.724c-.383.32-.894.51-1.468.51h-.32c-3.959-.574-7.28-1.915-9.77-3.895-3.257-2.618-5.173-6.322-5.62-11.047-.063-.639.128-1.277.575-1.724a2.15 2.15 0 0 1 1.66-.767h5.045a2.24 2.24 0 0 1 2.235 2.108c.128 2.171 1.15 3.767 3.13 4.917z" data-paper-data="{&quot;isPathIcon&quot;:true}"/></g><g data-paper-data="{&quot;isPrimaryText&quot;:true}" fill-rule="nonzero"><path d="m169.832 201.482-15.526-5.118-1.912 5.8-2.077-.685 4.6-13.953 2.077.684-1.92 5.824 15.526 5.119z" data-paper-data="{&quot;glyphName&quot;:&quot;T&quot;,&quot;glyphIndex&quot;:0,&quot;firstGlyphOfWord&quot;:true,&quot;word&quot;:1}"/><path d="m176.096 185.414-16.024-9.317 6.736-11.586 1.891 1.1-5.503 9.465 4.908 2.854 5.154-8.865 1.88 1.093-5.154 8.865 5.454 3.17 5.72-9.837 1.89 1.1z" data-paper-data="{&quot;glyphName&quot;:&quot;E&quot;,&quot;glyphIndex&quot;:1,&quot;word&quot;:1}"/><path d="m192.818 151.741 2.115-1.387c1.136 1.742 1.641 3.462 1.517 5.162-.125 1.7-.84 3.26-2.146 4.681-1.352 1.471-2.75 2.393-4.196 2.764-1.446.372-2.958.276-4.535-.286-1.578-.562-3.02-1.442-4.323-2.64-1.421-1.306-2.412-2.716-2.971-4.232-.56-1.515-.654-3.026-.282-4.533.372-1.508 1.11-2.863 2.217-4.068 1.254-1.365 2.657-2.194 4.207-2.487 1.55-.292 3.124-.043 4.72.748l-1.214 2.164c-1.284-.596-2.429-.8-3.435-.615-1.006.186-1.929.735-2.767 1.648-.964 1.049-1.518 2.156-1.662 3.323-.144 1.166.076 2.281.661 3.345a11.071 11.071 0 0 0 2.228 2.836c1.16 1.067 2.33 1.828 3.506 2.286 1.177.457 2.307.525 3.391.205a6.01 6.01 0 0 0 2.772-1.729c.93-1.012 1.425-2.136 1.486-3.374.06-1.237-.37-2.507-1.29-3.81z" data-paper-data="{&quot;glyphName&quot;:&quot;C&quot;,&quot;glyphIndex&quot;:2,&quot;word&quot;:1}"/><path d="m206.141 148.398-10.555-15.236 2.016-1.397 4.335 6.257 7.92-5.487-4.335-6.257 2.016-1.396 10.555 15.236-2.016 1.397-4.975-7.182-7.92 5.487 4.975 7.181z" data-paper-data="{&quot;glyphName&quot;:&quot;H&quot;,&quot;glyphIndex&quot;:3,&quot;word&quot;:1}"/><path d="m223.993 130.17 2.065-1.064c.453.816.977 1.423 1.573 1.821.596.398 1.353.607 2.272.626.92.02 1.866-.17 2.841-.57.866-.355 1.577-.797 2.135-1.326.557-.53.906-1.084 1.046-1.665a2.654 2.654 0 0 0-.117-1.668 2.412 2.412 0 0 0-1.046-1.217c-.476-.274-1.13-.4-1.959-.38-.534.01-1.666.149-3.396.416-1.73.268-2.98.364-3.75.287-.994-.093-1.823-.375-2.485-.846a4.23 4.23 0 0 1-1.478-1.888 4.71 4.71 0 0 1-.258-2.73c.183-.954.666-1.82 1.45-2.596.783-.777 1.753-1.402 2.907-1.875 1.271-.521 2.476-.776 3.615-.765 1.139.012 2.132.308 2.981.89.849.58 1.499 1.366 1.95 2.356l-2.108 1.056c-.562-1.036-1.293-1.693-2.195-1.97-.902-.277-2.011-.145-3.33.395-1.372.563-2.27 1.224-2.69 1.985-.422.76-.488 1.495-.197 2.205.253.616.683 1.032 1.29 1.247.6.22 1.908.159 3.924-.18 2.015-.339 3.43-.493 4.244-.463 1.187.051 2.163.332 2.928.843.765.51 1.337 1.226 1.714 2.146.374.913.465 1.88.274 2.901-.192 1.022-.685 1.957-1.48 2.807-.795.85-1.805 1.526-3.03 2.028-1.551.636-2.944.943-4.179.92-1.234-.022-2.336-.365-3.305-1.029-.97-.664-1.704-1.563-2.206-2.696z" data-paper-data="{&quot;glyphName&quot;:&quot;S&quot;,&quot;glyphIndex&quot;:4,&quot;word&quot;:1}"/><path d="m248.987 127.484-3.195-18.258 13.201-2.31.377 2.154-10.785 1.887.979 5.592 10.1-1.767.375 2.142-10.1 1.767 1.087 6.215 11.209-1.962.377 2.155z" data-paper-data="{&quot;glyphName&quot;:&quot;E&quot;,&quot;glyphIndex&quot;:5,&quot;word&quot;:1}"/><path d="m285.517 118.57 2.425.722c-.599 1.992-1.588 3.487-2.967 4.488-1.38 1-3.034 1.46-4.962 1.378-1.996-.084-3.602-.559-4.819-1.424-1.216-.866-2.118-2.083-2.705-3.652-.588-1.568-.844-3.237-.77-5.006.082-1.928.521-3.595 1.319-5 .797-1.404 1.892-2.45 3.284-3.138 1.391-.688 2.904-.998 4.538-.929 1.852.079 3.39.616 4.614 1.613 1.223.996 2.047 2.36 2.472 4.09l-2.437.467c-.373-1.366-.954-2.373-1.745-3.022-.791-.65-1.806-1-3.044-1.053-1.423-.06-2.627.23-3.611.873-.985.641-1.695 1.529-2.131 2.662a11.071 11.071 0 0 0-.732 3.532c-.066 1.574.105 2.959.515 4.153.409 1.194 1.086 2.102 2.03 2.724a6.01 6.01 0 0 0 3.108 1.005c1.373.058 2.552-.289 3.537-1.04.985-.752 1.679-1.9 2.081-3.443z" data-paper-data="{&quot;glyphName&quot;:&quot;C&quot;,&quot;glyphIndex&quot;:6,&quot;lastGlyphOfWord&quot;:true,&quot;word&quot;:1}"/><path d="m311.688 124.46 2.22.683c-.248.9-.298 1.7-.151 2.402.147.701.542 1.38 1.185 2.037s1.453 1.184 2.429 1.58c.867.353 1.684.535 2.453.547.768.012 1.406-.14 1.912-.458a2.654 2.654 0 0 0 1.084-1.272 2.412 2.412 0 0 0 .105-1.602c-.15-.53-.528-1.077-1.135-1.642-.388-.367-1.293-1.06-2.717-2.08-1.424-1.02-2.383-1.825-2.88-2.418-.645-.763-1.04-1.544-1.183-2.344a4.23 4.23 0 0 1 .265-2.383 4.71 4.71 0 0 1 1.726-2.13c.798-.554 1.749-.834 2.852-.84 1.104-.007 2.233.224 3.39.694 1.272.517 2.311 1.178 3.117 1.983.806.805 1.308 1.712 1.508 2.721.2 1.01.114 2.025-.256 3.049l-2.245-.722c.323-1.133.26-2.114-.19-2.942-.45-.83-1.335-1.512-2.655-2.048-1.374-.559-2.478-.714-3.311-.465-.834.248-1.395.727-1.683 1.438-.251.617-.235 1.215.049 1.794.275.576 1.251 1.448 2.928 2.616 1.678 1.168 2.796 2.048 3.357 2.64.812.867 1.313 1.75 1.502 2.65.19.9.097 1.812-.278 2.733-.371.914-.982 1.668-1.834 2.264-.852.596-1.859.919-3.021.97-1.163.05-2.357-.173-3.583-.671-1.554-.632-2.764-1.387-3.63-2.267-.867-.88-1.414-1.895-1.641-3.048-.228-1.152-.125-2.309.31-3.47z" data-paper-data="{&quot;glyphName&quot;:&quot;S&quot;,&quot;glyphIndex&quot;:7,&quot;firstGlyphOfWord&quot;:true,&quot;word&quot;:2}"/><path d="m335.324 142.749 9.13-13.561-5.066-3.41 1.222-1.815 12.187 8.205-1.222 1.815-5.086-3.425-9.13 13.56z" data-paper-data="{&quot;glyphName&quot;:&quot;T&quot;,&quot;glyphIndex&quot;:8,&quot;word&quot;:2}"/><path d="M354.64 145.993c2.219-2.13 4.529-3.203 6.928-3.216 2.4-.014 4.505.922 6.314 2.807 1.185 1.234 1.959 2.63 2.32 4.187.362 1.557.265 3.102-.29 4.635-.557 1.533-1.503 2.941-2.841 4.225-1.356 1.302-2.832 2.193-4.427 2.673-1.596.48-3.15.483-4.664.008a9.212 9.212 0 0 1-3.942-2.454c-1.209-1.259-1.985-2.676-2.328-4.25a8.136 8.136 0 0 1 .327-4.644 10.46 10.46 0 0 1 2.603-3.97zm1.724 1.85c-1.612 1.548-2.465 3.2-2.56 4.956-.096 1.757.484 3.289 1.739 4.596 1.278 1.332 2.799 1.978 4.561 1.94 1.763-.04 3.504-.884 5.225-2.536 1.088-1.045 1.862-2.141 2.32-3.289.459-1.147.572-2.289.338-3.426-.233-1.138-.772-2.147-1.619-3.03-1.202-1.252-2.667-1.916-4.395-1.993-1.727-.077-3.597.85-5.61 2.783z" data-paper-data="{&quot;glyphName&quot;:&quot;O&quot;,&quot;glyphIndex&quot;:9,&quot;word&quot;:2}"/><path d="m365.827 172.269 16.008-9.344 4.143 7.098c.833 1.427 1.322 2.595 1.468 3.506.146.91-.016 1.8-.484 2.669a5.262 5.262 0 0 1-2.025 2.074c-1.135.663-2.307.854-3.515.574-1.208-.28-2.366-1.128-3.474-2.54.058.717.04 1.298-.051 1.742-.207.95-.575 1.95-1.104 3.001l-2.731 5.328-1.555-2.665 2.094-4.062c.6-1.18 1.037-2.118 1.313-2.816s.423-1.265.442-1.7a3.681 3.681 0 0 0-.138-1.215c-.089-.27-.293-.678-.612-1.224l-1.434-2.457-7.108 4.15zm10.18-3.102 2.658 4.554c.565.968 1.107 1.667 1.626 2.096.518.429 1.08.657 1.687.684a3.01 3.01 0 0 0 1.685-.413c.757-.441 1.219-1.08 1.386-1.914.166-.834-.096-1.845-.789-3.031l-2.957-5.067z" data-paper-data="{&quot;glyphName&quot;:&quot;R&quot;,&quot;glyphIndex&quot;:10,&quot;word&quot;:2}"/><path d="m377.463 194.104 17.624-5.74 4.15 12.744-2.08.677-3.39-10.41-5.398 1.757 3.176 9.75-2.068.673-3.176-9.75-5.999 1.954 3.524 10.82-2.08.678z" data-paper-data="{&quot;glyphName&quot;:&quot;E&quot;,&quot;glyphIndex&quot;:11,&quot;lastGlyphOfWord&quot;:true,&quot;word&quot;:2}"/></g><g data-paper-data="{&quot;isMirroredPrimaryText&quot;:true}" fill-rule="nonzero"><path d="m151.916 274.09 15.527-5.118-1.912-5.8 2.077-.684 4.6 13.953-2.078.685-1.92-5.824-15.526 5.118z" data-paper-data="{&quot;glyphName&quot;:&quot;T&quot;,&quot;glyphIndex&quot;:0,&quot;firstGlyphOfWord&quot;:true,&quot;word&quot;:1}"/><path d="m159.788 293.735 16.024-9.317 6.736 11.587-1.89 1.099-5.504-9.466-4.908 2.854 5.154 8.864-1.88 1.093-5.154-8.864-5.454 3.17 5.72 9.838-1.892 1.1z" data-paper-data="{&quot;glyphName&quot;:&quot;E&quot;,&quot;glyphIndex&quot;:1,&quot;word&quot;:1}"/><path d="m188.497 321.894 1.203 2.226c-1.831.984-3.588 1.342-5.271 1.073-1.683-.268-3.177-1.113-4.483-2.534-1.352-1.471-2.151-2.943-2.399-4.415-.248-1.472-.024-2.97.67-4.495.694-1.525 1.692-2.886 2.996-4.083 1.422-1.306 2.911-2.173 4.468-2.602 1.558-.43 3.071-.395 4.542.103 1.47.498 2.758 1.349 3.864 2.553 1.255 1.366 1.962 2.833 2.122 4.403.16 1.57-.221 3.117-1.145 4.64l-2.053-1.393c.703-1.23 1.004-2.353.904-3.371-.1-1.019-.57-1.984-1.407-2.896-.964-1.05-2.02-1.695-3.17-1.938-1.15-.243-2.28-.118-3.39.375a11.071 11.071 0 0 0-3.015 1.98c-1.16 1.066-2.019 2.166-2.574 3.3-.555 1.133-.719 2.254-.492 3.361a6.01 6.01 0 0 0 1.488 2.909c.93 1.012 2.008 1.6 3.236 1.766 1.228.165 2.53-.155 3.906-.962z" data-paper-data="{&quot;glyphName&quot;:&quot;C&quot;,&quot;glyphIndex&quot;:2,&quot;word&quot;:1}"/><path d="m195.399 336.775 10.555-15.236 2.016 1.397-4.334 6.256 7.92 5.487 4.334-6.257 2.016 1.397-10.555 15.236-2.016-1.396 4.975-7.182-7.92-5.487-4.975 7.182z" data-paper-data="{&quot;glyphName&quot;:&quot;H&quot;,&quot;glyphIndex&quot;:3,&quot;word&quot;:1}"/><path d="m221.355 345.93 2.218.69c-.25.9-.303 1.7-.158 2.402.145.702.538 1.382 1.179 2.041.64.66 1.448 1.189 2.423 1.589.866.354 1.683.54 2.452.554.768.014 1.406-.137 1.913-.452a2.66 2.66 0 0 0 1.088-1.27c.22-.538.257-1.071.11-1.601-.147-.53-.524-1.078-1.13-1.645-.386-.368-1.29-1.064-2.71-2.088-1.42-1.025-2.377-1.834-2.872-2.428-.643-.765-1.035-1.547-1.176-2.348a4.23 4.23 0 0 1 .273-2.382 4.71 4.71 0 0 1 1.732-2.125c.8-.551 1.752-.828 2.856-.831 1.103-.003 2.232.232 3.386.705 1.271.521 2.309 1.186 3.112 1.993.803.808 1.303 1.716 1.499 2.726.196 1.01.108 2.026-.266 3.048l-2.243-.728c.328-1.133.268-2.114-.18-2.944-.448-.83-1.33-1.516-2.648-2.056-1.373-.563-2.476-.721-3.31-.476-.834.246-1.397.724-1.688 1.433-.253.616-.238 1.214.043 1.794.274.577 1.248 1.452 2.921 2.626 1.673 1.173 2.79 2.057 3.348 2.65.81.87 1.307 1.755 1.494 2.655.186.901.09 1.812-.287 2.732-.374.913-.988 1.665-1.841 2.258-.854.593-1.862.913-3.024.96-1.163.048-2.356-.18-3.58-.682-1.553-.636-2.76-1.395-3.624-2.278-.864-.882-1.408-1.9-1.632-3.053-.224-1.153-.116-2.31.322-3.469z" data-paper-data="{&quot;glyphName&quot;:&quot;S&quot;,&quot;glyphIndex&quot;:4,&quot;word&quot;:1}"/><path d="m245.735 360.765 3.195-18.258 13.202 2.31-.377 2.155-10.785-1.887-.98 5.591 10.101 1.768-.375 2.142-10.1-1.767-1.088 6.214 11.21 1.962-.378 2.155z" data-paper-data="{&quot;glyphName&quot;:&quot;E&quot;,&quot;glyphIndex&quot;:5,&quot;word&quot;:1}"/><path d="m285.765 356.958 2.477.516c-.429 2.034-1.288 3.608-2.578 4.721-1.29 1.114-2.9 1.71-4.828 1.792-1.996.085-3.637-.253-4.922-1.013-1.285-.76-2.286-1.896-3.004-3.41-.717-1.514-1.114-3.155-1.188-4.923-.082-1.929.215-3.626.892-5.093.676-1.467 1.678-2.602 3.007-3.405 1.328-.803 2.81-1.239 4.443-1.308 1.853-.078 3.431.328 4.734 1.218 1.303.89 2.24 2.179 2.808 3.867l-2.388.67c-.487-1.329-1.151-2.283-1.994-2.864-.843-.58-1.884-.844-3.122-.792-1.423.06-2.598.452-3.525 1.174-.927.723-1.56 1.667-1.899 2.833a11.071 11.071 0 0 0-.43 3.58c.066 1.575.354 2.94.862 4.096.509 1.155 1.26 2.003 2.253 2.543a6.01 6.01 0 0 0 3.182.739c1.373-.058 2.518-.503 3.436-1.335.918-.832 1.513-2.034 1.784-3.606z" data-paper-data="{&quot;glyphName&quot;:&quot;C&quot;,&quot;glyphIndex&quot;:6,&quot;lastGlyphOfWord&quot;:true,&quot;word&quot;:1}"/><path d="m314.305 351.65 2.068-1.058c.45.817.973 1.426 1.567 1.826.595.4 1.352.61 2.27.633.92.023 1.867-.164 2.843-.561.867-.352 1.58-.792 2.139-1.32.56-.527.91-1.08 1.051-1.661a2.654 2.654 0 0 0-.111-1.668 2.412 2.412 0 0 0-1.042-1.221c-.476-.275-1.128-.404-1.958-.385-.534.007-1.666.142-3.397.404-1.732.263-2.982.354-3.75.275-.995-.096-1.823-.38-2.484-.854a4.23 4.23 0 0 1-1.472-1.892 4.71 4.71 0 0 1-.25-2.73c.187-.954.673-1.818 1.459-2.592.786-.775 1.757-1.397 2.913-1.866 1.273-.517 2.479-.769 3.618-.754 1.138.015 2.131.315 2.978.899.847.584 1.494 1.371 1.943 2.363l-2.112 1.05c-.559-1.039-1.288-1.698-2.189-1.978-.9-.28-2.01-.152-3.33.385-1.375.558-2.274 1.217-2.698 1.976-.424.759-.492 1.494-.203 2.204.25.617.68 1.035 1.286 1.252.6.22 1.907.165 3.924-.168s3.432-.482 4.246-.45c1.187.056 2.162.34 2.925.853.764.513 1.333 1.23 1.707 2.152.371.913.46 1.88.265 2.901s-.691 1.955-1.489 2.802c-.797.848-1.81 1.52-3.035 2.018-1.554.632-2.948.934-4.183.908-1.234-.026-2.335-.373-3.302-1.04-.967-.667-1.7-1.568-2.197-2.703z" data-paper-data="{&quot;glyphName&quot;:&quot;S&quot;,&quot;glyphIndex&quot;:7,&quot;firstGlyphOfWord&quot;:true,&quot;word&quot;:2}"/><path d="m345.86 342.566-9.131-13.56-5.066 3.41-1.221-1.815 12.186-8.205 1.222 1.815-5.086 3.424 9.13 13.561z" data-paper-data="{&quot;glyphName&quot;:&quot;T&quot;,&quot;glyphIndex&quot;:8,&quot;word&quot;:2}"/><path d="M355.223 324.234c-2.219-2.13-3.384-4.395-3.496-6.792-.111-2.397.738-4.538 2.547-6.423 1.185-1.234 2.549-2.064 4.09-2.489 1.541-.425 3.089-.39 4.643.102 1.554.493 3 1.382 4.338 2.666 1.356 1.302 2.306 2.74 2.85 4.315.546 1.574.611 3.127.199 4.659a9.212 9.212 0 0 1-2.292 4.04c-1.209 1.258-2.593 2.091-4.152 2.498a8.136 8.136 0 0 1-4.653-.137 10.46 10.46 0 0 1-4.074-2.439zm1.779-1.798c1.611 1.547 3.297 2.332 5.056 2.356 1.759.024 3.266-.618 4.52-1.925 1.28-1.332 1.863-2.877 1.753-4.637-.11-1.759-1.026-3.465-2.747-5.117-1.088-1.045-2.215-1.773-3.38-2.184-1.165-.412-2.31-.478-3.438-.198-1.126.279-2.113.86-2.96 1.741-1.202 1.253-1.807 2.743-1.813 4.472-.007 1.73.996 3.56 3.009 5.492z" data-paper-data="{&quot;glyphName&quot;:&quot;O&quot;,&quot;glyphIndex&quot;:9,&quot;word&quot;:2}"/><path d="m382.12 306.907-16.009-9.343 4.143-7.098c.833-1.427 1.61-2.428 2.33-3.002.721-.575 1.575-.872 2.563-.891a5.262 5.262 0 0 1 2.802.742c1.135.663 1.878 1.59 2.228 2.78.35 1.19.182 2.614-.504 4.273.597-.403 1.111-.674 1.543-.812.93-.287 1.981-.46 3.156-.515l5.982-.242-1.555 2.665-4.567.174c-1.322.058-2.355.138-3.098.241-.744.103-1.31.254-1.698.451a3.681 3.681 0 0 0-.99.718c-.191.21-.446.589-.765 1.135l-1.434 2.457 7.109 4.149zm-7.707-7.338 2.657-4.553c.565-.969.907-1.784 1.026-2.447.118-.663.04-1.265-.235-1.806a3.01 3.01 0 0 0-1.187-1.264c-.757-.442-1.54-.53-2.348-.265-.809.265-1.56.99-2.252 2.177l-2.957 5.067z" data-paper-data="{&quot;glyphName&quot;:&quot;R&quot;,&quot;glyphIndex&quot;:10,&quot;word&quot;:2}"/><path d="m395.4 281.404-17.624-5.74 4.15-12.743 2.08.677-3.39 10.411 5.397 1.758 3.175-9.75 2.068.674-3.175 9.75 5.999 1.953 3.524-10.82 2.08.678z" data-paper-data="{&quot;glyphName&quot;:&quot;E&quot;,&quot;glyphIndex&quot;:11,&quot;lastGlyphOfWord&quot;:true,&quot;word&quot;:2}"/></g><g data-paper-data="{&quot;isContainerElementsWrapper&quot;:true}" fill-rule="evenodd"><path d="M154.614 212.868a122.967 122.967 0 0 0-1.95 21.966c0 7.494.654 14.842 1.964 22.042h3.012c-1.343-7.196-2.014-14.544-2.014-22.042 0-7.472.666-14.794 2-21.966zm237.433 0h3.013a122.98 122.98 0 0 1 1.95 21.966c0 7.494-.654 14.841-1.965 22.042h-3.013a119.903 119.903 0 0 0 2.015-22.042c0-7.472-.667-14.794-2-21.966z" data-paper-data="{&quot;isJbensonConnector&quot;:true}"/></g></g><g class="watermark-group" style="opacity:.040000010281801224"/></svg>