<svg class="svg-standalone-icon" viewBox="183.302 144.078 183.072 181.511"><g data-paper-data="{&quot;fillRule&quot;:&quot;evenodd&quot;,&quot;fillRuleOriginal&quot;:&quot;evenodd&quot;,&quot;isIcon&quot;:true,&quot;iconStyle&quot;:&quot;standalone&quot;,&quot;selectedEffects&quot;:{&quot;container&quot;:&quot;&quot;,&quot;transformation&quot;:&quot;&quot;,&quot;pattern&quot;:&quot;&quot;},&quot;bounds&quot;:{&quot;x&quot;:183.30241551768722,&quot;y&quot;:144.07807842717233,&quot;width&quot;:183.0716572951501,&quot;height&quot;:181.51110640425674},&quot;iconType&quot;:&quot;initial&quot;,&quot;initialText&quot;:&quot;TS&quot;,&quot;rawInitialId&quot;:315,&quot;disableIconEffects&quot;:&quot;true&quot;,&quot;monogramSpecial&quot;:&quot;half-moon&quot;,&quot;suitableAsStandaloneIcon&quot;:true}" fill-rule="evenodd"><path d="M183.302 234.833c0-50.122 40.633-90.755 90.756-90.755 21.138 0 40.588 7.226 56.014 19.343-11.748-6.54-25.278-10.268-39.678-10.268-45.11 0-81.68 36.57-81.68 81.68 0 45.111 36.57 81.68 81.68 81.68 14.4 0 27.93-3.726 39.678-10.268-15.426 12.118-34.876 19.344-56.014 19.344-50.123 0-90.756-40.633-90.756-90.756zm183.072 0c0 40.099-32.506 72.605-72.604 72.605-16.91 0-32.47-5.781-44.811-15.475 9.398 5.233 20.222 8.214 31.742 8.214 36.089 0 65.344-29.255 65.344-65.344 0-36.088-29.255-65.344-65.344-65.344-11.52 0-22.344 2.982-31.742 8.215 12.34-9.694 27.9-15.475 44.81-15.475 40.099 0 72.605 32.506 72.605 72.604zm-61.139-2.74c1.916.64 3.704 1.47 5.236 2.491 3.64 2.299 5.62 5.683 5.62 9.77 0 4.79-1.852 8.494-5.492 11.048-2.554 1.852-5.939 2.937-10.026 3.384h-.255c-.511 0-1.086-.191-1.469-.574a2.15 2.15 0 0 1-.766-1.66v-4.598c0-1.15.894-2.108 1.98-2.236 6.64-.766 6.64-3.831 6.64-5.172 0-.958-.319-1.597-1.149-2.171-1.277-.894-2.873-1.597-4.79-2.171-.318-.064-.574-.192-.83-.256l-.19-.064a112.72 112.72 0 0 0-5.876-1.468c-.766-.128-1.596-.384-2.554-.639a43.26 43.26 0 0 1-4.853-1.596c-2.427-1.022-4.534-2.363-6.195-4.024-1.852-1.851-2.81-4.342-2.81-7.407 0-4.215 1.66-7.663 4.854-10.281 2.299-1.916 5.428-3.066 9.323-3.576a2.336 2.336 0 0 1 1.788.574 2.32 2.32 0 0 1 .703 1.66v4.598c0 1.086-.767 2.044-1.852 2.235a8.78 8.78 0 0 0-1.597.32c-1.213.447-2.107.894-2.682 1.405-.51.447-.83.894-1.022 1.34a7.196 7.196 0 0 0-.319 2.044c0 .192 0 .511.575 1.086.638.638 1.533 1.15 2.618 1.596.766.32 1.724.639 2.682.958.575.128 1.15.32 1.724.447 1.788.447 3.576.894 5.428 1.341.256.064.511.128.83.192l.384.127c1.66.447 3.065.83 4.342 1.278zm-69.414-21.2h6.577a2.29 2.29 0 0 1 2.3 2.298v4.662a2.29 2.29 0 0 1-2.3 2.3h-6.577c-1.213 0-2.235-1.023-2.235-2.3v-4.662c0-1.277 1.022-2.298 2.235-2.298zm15.134 0h19.988c1.213 0 2.235 1.021 2.235 2.298v4.662c0 1.277-1.022 2.3-2.235 2.3h-12.836v36.27c0 1.214-1.021 2.236-2.235 2.236h-4.917c-1.277 0-2.299-1.022-2.299-2.235V213.19a2.29 2.29 0 0 1 2.3-2.298zm49.107 9.26h-.255c-1.022-.256-1.724-1.15-1.724-2.236v-4.662c0-.638.32-1.277.83-1.724.447-.383 1.15-.575 1.788-.447 3.704.575 6.769 1.852 9.132 3.832 3.193 2.618 4.917 6.002 5.108 10.09.064.638-.191 1.213-.574 1.66a2.319 2.319 0 0 1-1.66.702h-4.982c-1.085 0-2.043-.83-2.17-1.98-.256-1.596-.959-3.959-5.237-5.172-.128 0-.192 0-.256-.064zm-11.239 28.033c1.022.575 2.172.958 3.513 1.277 1.085.192 1.788 1.15 1.788 2.171v4.726a2.28 2.28 0 0 1-.767 1.724c-.383.32-.894.51-1.468.51h-.32c-3.959-.574-7.28-1.915-9.77-3.895-3.257-2.618-5.173-6.322-5.62-11.047-.063-.639.128-1.277.575-1.724a2.15 2.15 0 0 1 1.66-.767h5.045a2.24 2.24 0 0 1 2.235 2.108c.128 2.171 1.15 3.767 3.13 4.917z" data-paper-data="{&quot;isPathIcon&quot;:true}" style="fill:#fff"/></g></svg>